<svg width="144" height="28" viewBox="0 0 144 28" fill="none" xmlns="http://www.w3.org/2000/svg">
<path d="M12.5393 17.9234H6.19295L5.22882 20.8502H-0.00012207L6.52386 2.94287H12.2542L18.7525 20.8502H13.4963L12.5393 17.9234ZM9.36613 8.32511L7.46365 14.1113H11.2958L9.36613 8.32511Z" fill="#172B4D"/>
<path d="M20.38 2.05981H25.354V20.8554H20.38V2.05981Z" fill="#172B4D"/>
<path d="M33.4491 6.43446C34.2769 6.38491 35.1027 6.55909 35.84 6.9387C36.5773 7.31831 37.1989 7.88935 37.6394 8.59194V6.6035H42.6134V20.6902C42.6134 24.4965 40.5333 27.8531 35.4046 27.8531C30.9636 27.8531 28.2216 25.6197 27.8663 22.0926H32.7686C32.972 23.0052 33.8344 23.5381 35.1037 23.5381C36.4991 23.5381 37.6423 22.9049 37.6423 20.6959V18.8679C37.2018 19.5702 36.5804 20.141 35.8434 20.5206C35.1065 20.9002 34.2809 21.0745 33.4534 21.0254C30.0782 21.0254 27.3878 18.2591 27.3878 13.7192C27.3878 9.17931 30.0725 6.43446 33.4491 6.43446ZM35.0478 10.7738C34.677 10.7745 34.3105 10.854 33.9727 11.0072C33.6349 11.1604 33.3336 11.3837 33.0888 11.6623C32.844 11.9408 32.6613 12.2683 32.5527 12.623C32.4441 12.9776 32.4122 13.3513 32.4591 13.7192C32.5247 14.2169 32.7323 14.6851 33.0571 15.0679C33.3819 15.4507 33.8101 15.7317 34.2905 15.8774C34.7709 16.0231 35.2831 16.0273 35.7658 15.8894C36.2485 15.7515 36.6812 15.4774 37.0121 15.0999C37.3431 14.7225 37.5582 14.2576 37.6318 13.761C37.7054 13.2645 37.6343 12.7572 37.427 12.3C37.2198 11.8428 36.8852 11.455 36.4632 11.183C36.0412 10.9111 35.5498 10.7665 35.0478 10.7666V10.7738Z" fill="#172B4D"/>
<path d="M52.0773 21.0183C50.6427 20.9812 49.2508 20.5219 48.0757 19.6979C46.9007 18.8739 45.9946 17.7218 45.4709 16.3857C44.9471 15.0495 44.8289 13.5886 45.1309 12.1856C45.433 10.7826 46.1419 9.49975 47.1691 8.4975C48.1963 7.49525 49.4962 6.81805 50.9062 6.5506C52.3162 6.28314 53.7738 6.4373 55.0967 6.99378C56.4195 7.55026 57.549 8.48437 58.3439 9.67931C59.1387 10.8743 59.5636 12.277 59.5655 13.7122C59.6115 14.6995 59.4478 15.6853 59.0853 16.6048C58.7227 17.5243 58.1696 18.3566 57.4621 19.0468C56.7547 19.7371 55.909 20.2696 54.9809 20.6094C54.0528 20.9493 53.0632 21.0886 52.0773 21.0183ZM52.0773 16.7034C53.3466 16.7034 54.5128 15.7651 54.5128 13.7093C54.5128 11.6779 53.3667 10.7395 52.1103 10.7395C50.8539 10.7395 49.7236 11.6779 49.7236 13.7093C49.7164 15.7651 50.7823 16.7034 52.0773 16.7034Z" fill="#172B4D"/>
<path d="M74.4602 6.73412L67.025 16.8095H74.4602V20.8566H61.4408V17.0659L68.7985 6.9662H61.4408V2.95496H74.4602V6.73412Z" fill="#172B4D"/>
<path d="M83.5684 21.0187C81.6508 20.9919 79.8209 20.2113 78.4744 18.8458C77.1279 17.4803 76.373 15.6396 76.373 13.7219C76.373 11.8041 77.1279 9.96347 78.4744 8.59796C79.8209 7.23245 81.6508 6.45184 83.5684 6.42497C84.5242 6.35914 85.4831 6.49808 86.3809 6.83247C87.2788 7.16686 88.0949 7.68901 88.7748 8.36404C89.4547 9.03907 89.9827 9.85143 90.3236 10.7468C90.6644 11.6423 90.8103 12.6001 90.7513 13.5564C90.7514 13.9463 90.7261 14.3359 90.6754 14.7225H81.259C81.3607 16.3743 82.249 17.0319 83.3621 17.0319C83.7362 17.0457 84.1058 16.9465 84.4226 16.7472C84.7395 16.5479 84.989 16.2577 85.1385 15.9144H90.4391C90.0606 17.4284 89.1691 18.7644 87.9164 19.6951C86.6637 20.6257 85.1271 21.0935 83.5684 21.0187ZM81.2848 12.3086H85.6714C85.6728 12.0362 85.6172 11.7665 85.508 11.5169C85.3989 11.2673 85.2386 11.0434 85.0377 10.8594C84.8367 10.6755 84.5996 10.5357 84.3413 10.449C84.0831 10.3623 83.8095 10.3306 83.5383 10.356C82.9826 10.3271 82.4373 10.515 82.0173 10.8799C81.5973 11.2449 81.3352 11.7586 81.2862 12.3129L81.2848 12.3086Z" fill="#172B4D"/>
<path d="M102.48 13.2029C102.508 12.8756 102.468 12.546 102.362 12.235C102.256 11.9241 102.086 11.6386 101.864 11.3966C101.642 11.1546 101.372 10.9614 101.071 10.8292C100.77 10.697 100.445 10.6288 100.117 10.6288C99.7882 10.6288 99.4632 10.697 99.1624 10.8292C98.8616 10.9614 98.5915 11.1546 98.3693 11.3966C98.1471 11.6386 97.9776 11.9241 97.8714 12.235C97.7653 12.546 97.725 12.8756 97.753 13.2029V20.8501H92.7847V6.60301H97.7587V8.64015C98.2489 7.95163 98.9013 7.39465 99.6582 7.01856C100.415 6.64248 101.253 6.4589 102.098 6.4841C105.402 6.4841 107.453 8.81923 107.453 12.5497V20.8587H102.479L102.48 13.2029Z" fill="#172B4D"/>
<path d="M109.788 2.74503C109.87 2.03208 110.212 1.37429 110.747 0.896819C111.283 0.419347 111.976 0.155518 112.694 0.155518C113.411 0.155518 114.104 0.419347 114.64 0.896819C115.176 1.37429 115.517 2.03208 115.6 2.74503C115.504 3.44823 115.157 4.09306 114.623 4.55997C114.089 5.02687 113.403 5.28417 112.694 5.28417C111.984 5.28417 111.298 5.02687 110.764 4.55997C110.23 4.09306 109.883 3.44823 109.788 2.74503ZM110.193 6.603H115.168V20.8501H110.193V6.603Z" fill="#172B4D"/>
<path d="M118.796 10.741H117.045V6.60369H118.796V3.14972H123.797V6.60369H126.384V10.741H123.797V15.513C123.797 16.2737 124.125 16.6032 124.963 16.6032H126.409V20.8493H124.253C121.101 20.8493 118.796 19.5299 118.796 15.4428V10.741Z" fill="#172B4D"/>
<path d="M128.695 2.05981H133.67V8.63254C134.166 7.938 134.827 7.37745 135.593 7.00116C136.359 6.62486 137.207 6.44458 138.06 6.47648C141.309 6.47648 143.36 8.8116 143.36 12.5421V20.8554H138.386V13.2082C138.42 12.8781 138.384 12.5447 138.281 12.2294C138.177 11.9141 138.009 11.624 137.787 11.3778C137.564 11.1316 137.292 10.9348 136.989 10.8001C136.686 10.6654 136.358 10.5958 136.026 10.5958C135.694 10.5958 135.366 10.6654 135.063 10.8001C134.76 10.9348 134.488 11.1316 134.266 11.3778C134.043 11.624 133.875 11.9141 133.772 12.2294C133.668 12.5447 133.632 12.8781 133.666 13.2082V20.8554H128.691L128.695 2.05981Z" fill="#172B4D"/>
</svg>
