<svg width="36" height="36" viewBox="0 0 36 36" fill="none" xmlns="http://www.w3.org/2000/svg">
<path d="M13.5 28.5V19.5C13.5 18.7044 13.1839 17.9413 12.6213 17.3787C12.0587 16.8161 11.2956 16.5 10.5 16.5H7.5C6.70435 16.5 5.94129 16.8161 5.37868 17.3787C4.81607 17.9413 4.5 18.7044 4.5 19.5V28.5C4.5 29.2956 4.81607 30.0587 5.37868 30.6213C5.94129 31.1839 6.70435 31.5 7.5 31.5H10.5C11.2956 31.5 12.0587 31.1839 12.6213 30.6213C13.1839 30.0587 13.5 29.2956 13.5 28.5ZM13.5 28.5V13.5C13.5 12.7044 13.8161 11.9413 14.3787 11.3787C14.9413 10.8161 15.7044 10.5 16.5 10.5H19.5C20.2956 10.5 21.0587 10.8161 21.6213 11.3787C22.1839 11.9413 22.5 12.7044 22.5 13.5V28.5M13.5 28.5C13.5 29.2956 13.8161 30.0587 14.3787 30.6213C14.9413 31.1839 15.7044 31.5 16.5 31.5H19.5C20.2956 31.5 21.0587 31.1839 21.6213 30.6213C22.1839 30.0587 22.5 29.2956 22.5 28.5M22.5 28.5V7.5C22.5 6.70435 22.8161 5.94129 23.3787 5.37868C23.9413 4.81607 24.7044 4.5 25.5 4.5H28.5C29.2956 4.5 30.0587 4.81607 30.6213 5.37868C31.1839 5.94129 31.5 6.70435 31.5 7.5V28.5C31.5 29.2956 31.1839 30.0587 30.6213 30.6213C30.0587 31.1839 29.2956 31.5 28.5 31.5H25.5C24.7044 31.5 23.9413 31.1839 23.3787 30.6213C22.8161 30.0587 22.5 29.2956 22.5 28.5Z" stroke="url(#paint0_linear_1_190)" stroke-width="2" stroke-linecap="round" stroke-linejoin="round"/>
<defs>
<linearGradient id="paint0_linear_1_190" x1="6.60936" y1="4.5" x2="28.7578" y2="4.5" gradientUnits="userSpaceOnUse">
<stop stop-color="#3467AE"/>
<stop offset="1" stop-color="#0C4969"/>
</linearGradient>
</defs>
</svg>
