<svg width="32" height="32" viewBox="0 0 32 32" fill="none" xmlns="http://www.w3.org/2000/svg">
<path d="M10.6667 9.33333V20C10.6667 20.7072 10.9476 21.3855 11.4477 21.8856C11.9478 22.3857 12.6261 22.6667 13.3333 22.6667H21.3333M10.6667 9.33333V6.66667C10.6667 5.95942 10.9476 5.28115 11.4477 4.78105C11.9478 4.28095 12.6261 4 13.3333 4H19.448C19.8016 4.00008 20.1407 4.1406 20.3907 4.39067L26.276 10.276C26.5261 10.526 26.6666 10.8651 26.6667 11.2187V20C26.6667 20.7072 26.3857 21.3855 25.8856 21.8856C25.3855 22.3857 24.7072 22.6667 24 22.6667H21.3333M10.6667 9.33333H8C7.29276 9.33333 6.61448 9.61428 6.11438 10.1144C5.61429 10.6145 5.33334 11.2928 5.33334 12V25.3333C5.33334 26.0406 5.61429 26.7189 6.11438 27.219C6.61448 27.719 7.29276 28 8 28H18.6667C19.3739 28 20.0522 27.719 20.5523 27.219C21.0524 26.7189 21.3333 26.0406 21.3333 25.3333V22.6667" stroke="url(#paint0_linear_1_172)" stroke-width="2" stroke-linecap="round" stroke-linejoin="round"/>
<defs>
<linearGradient id="paint0_linear_1_172" x1="6.99999" y1="4" x2="24.5" y2="4" gradientUnits="userSpaceOnUse">
<stop stop-color="#3467AE"/>
<stop offset="1" stop-color="#0C4969"/>
</linearGradient>
</defs>
</svg>
