<svg width="36" height="36" viewBox="0 0 36 36" fill="none" xmlns="http://www.w3.org/2000/svg">
<path d="M12 10.5V22.5C12 23.2956 12.3161 24.0587 12.8787 24.6213C13.4413 25.1839 14.2044 25.5 15 25.5H24M12 10.5V7.5C12 6.70435 12.3161 5.94129 12.8787 5.37868C13.4413 4.81607 14.2044 4.5 15 4.5H21.879C22.2768 4.50008 22.6583 4.65818 22.9395 4.9395L29.5605 11.5605C29.8418 11.8417 29.9999 12.2232 30 12.621V22.5C30 23.2956 29.6839 24.0587 29.1213 24.6213C28.5587 25.1839 27.7956 25.5 27 25.5H24M12 10.5H9C8.20435 10.5 7.44129 10.8161 6.87868 11.3787C6.31607 11.9413 6 12.7044 6 13.5V28.5C6 29.2956 6.31607 30.0587 6.87868 30.6213C7.44129 31.1839 8.20435 31.5 9 31.5H21C21.7956 31.5 22.5587 31.1839 23.1213 30.6213C23.6839 30.0587 24 29.2956 24 28.5V25.5" stroke="url(#paint0_linear_1_186)" stroke-width="2" stroke-linecap="round" stroke-linejoin="round"/>
<defs>
<linearGradient id="paint0_linear_1_186" x1="7.87499" y1="4.5" x2="27.5625" y2="4.5" gradientUnits="userSpaceOnUse">
<stop stop-color="#3467AE"/>
<stop offset="1" stop-color="#0C4969"/>
</linearGradient>
</defs>
</svg>
