<svg width="32" height="33" viewBox="0 0 32 33" fill="none" xmlns="http://www.w3.org/2000/svg">
<path d="M28 18.1734C24.1873 19.715 20.1126 20.505 16 20.5C11.756 20.5 7.7067 19.6734 4.00003 18.1734M21.3334 8.50002V5.83335C21.3334 5.12611 21.0524 4.44783 20.5523 3.94774C20.0522 3.44764 19.3739 3.16669 18.6667 3.16669H13.3334C12.6261 3.16669 11.9478 3.44764 11.4477 3.94774C10.9476 4.44783 10.6667 5.12611 10.6667 5.83335V8.50002M16 16.5H16.0134M6.6667 27.1667H25.3334C26.0406 27.1667 26.7189 26.8857 27.219 26.3856C27.7191 25.8855 28 25.2073 28 24.5V11.1667C28 10.4594 27.7191 9.78117 27.219 9.28107C26.7189 8.78097 26.0406 8.50002 25.3334 8.50002H6.6667C5.95945 8.50002 5.28118 8.78097 4.78108 9.28107C4.28098 9.78117 4.00003 10.4594 4.00003 11.1667V24.5C4.00003 25.2073 4.28098 25.8855 4.78108 26.3856C5.28118 26.8857 5.95945 27.1667 6.6667 27.1667Z" stroke="black" stroke-width="2" stroke-linecap="round" stroke-linejoin="round"/>
</svg>
