<svg width="32" height="32" viewBox="0 0 32 32" fill="none" xmlns="http://www.w3.org/2000/svg">
<path d="M19.6693 14.8907L15.4067 12.048C15.2057 11.9139 14.972 11.8369 14.7307 11.8253C14.4893 11.8137 14.2494 11.8679 14.0365 11.9821C13.8235 12.0963 13.6456 12.2662 13.5218 12.4737C13.398 12.6812 13.3328 12.9184 13.3333 13.16V18.844C13.3333 19.0854 13.3988 19.3223 13.5228 19.5293C13.6469 19.7364 13.8248 19.9059 14.0376 20.0198C14.2505 20.1337 14.4902 20.1877 14.7314 20.176C14.9725 20.1642 15.2059 20.0873 15.4067 19.9533L19.6693 17.1107C19.8519 16.9889 20.0017 16.8239 20.1052 16.6304C20.2088 16.4369 20.263 16.2208 20.263 16.0013C20.263 15.7818 20.2088 15.5658 20.1052 15.3722C20.0017 15.1787 19.8519 15.0124 19.6693 14.8907Z" stroke="url(#paint0_linear_1_138)" stroke-width="2" stroke-linecap="round" stroke-linejoin="round"/>
<path d="M28 16C28 17.5759 27.6896 19.1363 27.0866 20.5922C26.4835 22.0481 25.5996 23.371 24.4853 24.4853C23.371 25.5996 22.0481 26.4835 20.5922 27.0866C19.1363 27.6896 17.5759 28 16 28C14.4241 28 12.8637 27.6896 11.4078 27.0866C9.95189 26.4835 8.62902 25.5996 7.51472 24.4853C6.40042 23.371 5.5165 22.0481 4.91345 20.5922C4.31039 19.1363 4 17.5759 4 16C4 12.8174 5.26428 9.76516 7.51472 7.51472C9.76516 5.26428 12.8174 4 16 4C19.1826 4 22.2348 5.26428 24.4853 7.51472C26.7357 9.76516 28 12.8174 28 16Z" stroke="url(#paint1_linear_1_138)" stroke-width="2" stroke-linecap="round" stroke-linejoin="round"/>
<defs>
<linearGradient id="paint0_linear_1_138" x1="13.8747" y1="11.8238" x2="19.5592" y2="11.8238" gradientUnits="userSpaceOnUse">
<stop stop-color="#3467AE"/>
<stop offset="1" stop-color="#0C4969"/>
</linearGradient>
<linearGradient id="paint1_linear_1_138" x1="5.87499" y1="4" x2="25.5625" y2="4" gradientUnits="userSpaceOnUse">
<stop stop-color="#3467AE"/>
<stop offset="1" stop-color="#0C4969"/>
</linearGradient>
</defs>
</svg>
