<svg width="32" height="32" viewBox="0 0 32 32" fill="none" xmlns="http://www.w3.org/2000/svg">
<path d="M14.732 3.90266C15.132 2.67466 16.8693 2.67466 17.268 3.90266L19.2933 10.1347C19.3805 10.402 19.5499 10.6349 19.7774 10.8001C20.0049 10.9654 20.2788 11.0545 20.56 11.0547H27.1133C28.4053 11.0547 28.9413 12.708 27.8973 13.468L22.596 17.3187C22.3683 17.4842 22.1988 17.7176 22.1119 17.9854C22.0249 18.2531 22.025 18.5416 22.112 18.8093L24.136 25.0413C24.536 26.2707 23.1293 27.292 22.0853 26.532L16.784 22.6813C16.5562 22.5157 16.2817 22.4265 16 22.4265C15.7183 22.4265 15.4439 22.5157 15.216 22.6813L9.91467 26.532C8.87067 27.292 7.464 26.2693 7.864 25.0413L9.88801 18.8093C9.97504 18.5416 9.97509 18.2531 9.88815 17.9854C9.80121 17.7176 9.63173 17.4842 9.40401 17.3187L4.10267 13.468C3.05734 12.708 3.59601 11.0547 4.88667 11.0547H11.4387C11.7201 11.0547 11.9943 10.9658 12.222 10.8005C12.4498 10.6353 12.6194 10.4022 12.7067 10.1347L14.732 3.90266Z" stroke="black" stroke-width="2" stroke-linecap="round" stroke-linejoin="round"/>
</svg>
