<svg width="32" height="32" viewBox="0 0 32 32" fill="none" xmlns="http://www.w3.org/2000/svg">
<path d="M22.6667 26.6667H29.3334V24C29.3333 23.1687 29.0742 22.3581 28.5922 21.6808C28.1102 21.0036 27.4291 20.4933 26.6437 20.221C25.8583 19.9487 25.0075 19.9279 24.2097 20.1614C23.4119 20.3949 22.7066 20.8712 22.192 21.524M22.6667 26.6667H9.33335M22.6667 26.6667V24C22.6667 23.1253 22.4987 22.2893 22.192 21.524M22.192 21.524C21.6969 20.2866 20.8424 19.226 19.7387 18.4788C18.635 17.7317 17.3328 17.3324 16 17.3324C14.6672 17.3324 13.365 17.7317 12.2614 18.4788C11.1577 19.226 10.3032 20.2866 9.80802 21.524M9.33335 26.6667H2.66669V24C2.66675 23.1687 2.9258 22.3581 3.40784 21.6808C3.88987 21.0036 4.57093 20.4933 5.35635 20.221C6.14177 19.9487 6.99252 19.9279 7.79034 20.1614C8.58815 20.3949 9.29339 20.8712 9.80802 21.524M9.33335 26.6667V24C9.33335 23.1253 9.50135 22.2893 9.80802 21.524M20 9.33334C20 10.3942 19.5786 11.4116 18.8284 12.1618C18.0783 12.9119 17.0609 13.3333 16 13.3333C14.9392 13.3333 13.9217 12.9119 13.1716 12.1618C12.4214 11.4116 12 10.3942 12 9.33334C12 8.27248 12.4214 7.25506 13.1716 6.50492C13.9217 5.75477 14.9392 5.33334 16 5.33334C17.0609 5.33334 18.0783 5.75477 18.8284 6.50492C19.5786 7.25506 20 8.27248 20 9.33334ZM28 13.3333C28 14.0406 27.7191 14.7189 27.219 15.219C26.7189 15.7191 26.0406 16 25.3334 16C24.6261 16 23.9478 15.7191 23.4477 15.219C22.9476 14.7189 22.6667 14.0406 22.6667 13.3333C22.6667 12.6261 22.9476 11.9478 23.4477 11.4477C23.9478 10.9476 24.6261 10.6667 25.3334 10.6667C26.0406 10.6667 26.7189 10.9476 27.219 11.4477C27.7191 11.9478 28 12.6261 28 13.3333ZM9.33335 13.3333C9.33335 14.0406 9.0524 14.7189 8.5523 15.219C8.05221 15.7191 7.37393 16 6.66669 16C5.95944 16 5.28117 15.7191 4.78107 15.219C4.28097 14.7189 4.00002 14.0406 4.00002 13.3333C4.00002 12.6261 4.28097 11.9478 4.78107 11.4477C5.28117 10.9476 5.95944 10.6667 6.66669 10.6667C7.37393 10.6667 8.05221 10.9476 8.5523 11.4477C9.0524 11.9478 9.33335 12.6261 9.33335 13.3333Z" stroke="black" stroke-width="2" stroke-linecap="round" stroke-linejoin="round"/>
</svg>
