<svg width="29" height="16" viewBox="0 0 29 16" fill="none" xmlns="http://www.w3.org/2000/svg">
<path d="M2.79709 2.42258L2.79714 2.42253C3.47842 1.86317 4.10151 1.35498 4.55643 0.986932C4.72889 0.847404 4.87666 0.72844 4.99402 0.634654C5.01797 0.653921 5.04328 0.674302 5.06991 0.695774C5.31345 0.89215 5.66391 1.17666 6.09558 1.52836C6.95873 2.23159 8.14458 3.20184 9.44475 4.26926L14.1736 8.15174L14.4909 8.41223L14.8082 8.15173L19.537 4.26908C20.8371 3.20165 22.023 2.23141 22.8862 1.52818C23.3179 1.17649 23.6683 0.891991 23.9119 0.695626C23.9386 0.674135 23.9639 0.653738 23.9879 0.634457C24.1059 0.728748 24.2546 0.848492 24.4283 0.989007C24.8849 1.35844 25.5102 1.86853 26.1939 2.42996L26.1939 2.42996L28.2121 4.08707L14.4907 15.3531L7.56262 9.66476L7.24534 10.0512L7.56261 9.66475C5.57019 8.02896 3.75903 6.54019 2.44604 5.45938C1.78951 4.91894 1.25771 4.48063 0.890121 4.17698C0.851307 4.14492 0.814339 4.11437 0.77926 4.08537C0.859609 4.01871 0.949247 3.94447 1.04708 3.86356C1.49593 3.49233 2.1154 2.98211 2.79709 2.42258Z" fill="#17384D" stroke="white"/>
</svg>
