<svg width="29" height="16" viewBox="0 0 29 16" fill="none" xmlns="http://www.w3.org/2000/svg">
<path d="M2.79709 13.5774L2.79714 13.5775C3.47842 14.1368 4.10151 14.645 4.55643 15.0131C4.72889 15.1526 4.87666 15.2716 4.99402 15.3653C5.01797 15.3461 5.04328 15.3257 5.06991 15.3042C5.31345 15.1079 5.66391 14.8233 6.09558 14.4716C6.95873 13.7684 8.14458 12.7982 9.44475 11.7307L14.1736 7.84826L14.4909 7.58777L14.8082 7.84827L19.537 11.7309C20.8371 12.7984 22.023 13.7686 22.8862 14.4718C23.3179 14.8235 23.6683 15.108 23.9119 15.3044C23.9386 15.3259 23.9639 15.3463 23.9879 15.3655C24.1059 15.2713 24.2546 15.1515 24.4283 15.011C24.8849 14.6416 25.5102 14.1315 26.1939 13.57L26.1939 13.57L28.2121 11.9129L14.4907 0.646939L7.56262 6.33524L7.24534 5.94881L7.56261 6.33525C5.57019 7.97104 3.75903 9.45981 2.44604 10.5406C1.78951 11.0811 1.25771 11.5194 0.890121 11.823C0.851307 11.8551 0.814339 11.8856 0.77926 11.9146C0.859609 11.9813 0.949247 12.0555 1.04708 12.1364C1.49593 12.5077 2.1154 13.0179 2.79709 13.5774Z" fill="#17384D" stroke="white"/>
</svg>
