<svg width="53" height="50" viewBox="0 0 53 50" fill="none" xmlns="http://www.w3.org/2000/svg">
<rect width="52.3993" height="49.6" rx="6" fill="#E7F8FF"/>
<path d="M26.1997 12C23.6536 12 21.2118 13.0114 19.4114 14.8118C17.6111 16.6121 16.5997 19.0539 16.5997 21.6V27.3376L15.4685 28.4688C15.2448 28.6926 15.0924 28.9776 15.0307 29.288C14.969 29.5983 15.0007 29.9199 15.1218 30.2122C15.2428 30.5046 15.4479 30.7544 15.7109 30.9302C15.974 31.1061 16.2833 31.1999 16.5997 31.2H35.7997C36.1161 31.1999 36.4253 31.1061 36.6884 30.9302C36.9514 30.7544 37.1565 30.5046 37.2775 30.2122C37.3986 29.9199 37.4303 29.5983 37.3686 29.288C37.3069 28.9776 37.1546 28.6926 36.9309 28.4688L35.7997 27.3376V21.6C35.7997 19.0539 34.7882 16.6121 32.9879 14.8118C31.1875 13.0114 28.7457 12 26.1997 12ZM26.1997 37.6C24.9266 37.6 23.7057 37.0943 22.8055 36.1941C21.9054 35.2939 21.3997 34.073 21.3997 32.8H30.9997C30.9997 34.073 30.4939 35.2939 29.5938 36.1941C28.6936 37.0943 27.4727 37.6 26.1997 37.6Z" fill="#172B4D"/>
</svg>
