<svg width="32" height="32" viewBox="0 0 32 32" fill="none" xmlns="http://www.w3.org/2000/svg">
<path d="M4 7C4 6.20435 4.31607 5.44129 4.87868 4.87868C5.44129 4.31607 6.20435 4 7 4H10C10.7956 4 11.5587 4.31607 12.1213 4.87868C12.6839 5.44129 13 6.20435 13 7V10C13 10.7956 12.6839 11.5587 12.1213 12.1213C11.5587 12.6839 10.7956 13 10 13H7C6.20435 13 5.44129 12.6839 4.87868 12.1213C4.31607 11.5587 4 10.7956 4 10V7ZM19 7C19 6.20435 19.3161 5.44129 19.8787 4.87868C20.4413 4.31607 21.2044 4 22 4H25C25.7956 4 26.5587 4.31607 27.1213 4.87868C27.6839 5.44129 28 6.20435 28 7V10C28 10.7956 27.6839 11.5587 27.1213 12.1213C26.5587 12.6839 25.7956 13 25 13H22C21.2044 13 20.4413 12.6839 19.8787 12.1213C19.3161 11.5587 19 10.7956 19 10V7ZM4 22C4 21.2044 4.31607 20.4413 4.87868 19.8787C5.44129 19.3161 6.20435 19 7 19H10C10.7956 19 11.5587 19.3161 12.1213 19.8787C12.6839 20.4413 13 21.2044 13 22V25C13 25.7956 12.6839 26.5587 12.1213 27.1213C11.5587 27.6839 10.7956 28 10 28H7C6.20435 28 5.44129 27.6839 4.87868 27.1213C4.31607 26.5587 4 25.7956 4 25V22ZM19 22C19 21.2044 19.3161 20.4413 19.8787 19.8787C20.4413 19.3161 21.2044 19 22 19H25C25.7956 19 26.5587 19.3161 27.1213 19.8787C27.6839 20.4413 28 21.2044 28 22V25C28 25.7956 27.6839 26.5587 27.1213 27.1213C26.5587 27.6839 25.7956 28 25 28H22C21.2044 28 20.4413 27.6839 19.8787 27.1213C19.3161 26.5587 19 25.7956 19 25V22Z" stroke="#172B4D" stroke-width="2" stroke-linecap="round" stroke-linejoin="round"/>
</svg>
